<!DOCTYPE svg PUBLIC "-//W3C//DTD SVG 1.1//EN" "http://www.w3.org/Graphics/SVG/1.1/DTD/svg11.dtd">
<!-- Uploaded to: SVG Repo, www.svgrepo.com, Transformed by: SVG Repo Mixer Tools -->
<svg width="800px" height="800px" viewBox="0 0 24.00 24.00" fill="none" xmlns="http://www.w3.org/2000/svg" stroke="#000000" stroke-width="0.00024000000000000003">
<g id="SVGRepo_bgCarrier" stroke-width="0"/>
<g id="SVGRepo_tracerCarrier" stroke-linecap="round" stroke-linejoin="round"/>
<g id="SVGRepo_iconCarrier"> <path d="M15.8669 3.54428C16.1675 3.25931 16.1802 2.7846 15.8952 2.484C15.6102 2.1834 15.1355 2.17074 14.8349 2.45572L15.8669 3.54428ZM12.0003 6.17647L11.4843 6.72075L12.0003 7.20994L12.5163 6.72075L12.0003 6.17647ZM9.16573 2.45572C8.86513 2.17074 8.39042 2.1834 8.10544 2.484C7.82046 2.7846 7.83313 3.25931 8.13373 3.54428L9.16573 2.45572ZM9.28151 19.8417C9.51896 19.5023 9.43633 19.0347 9.09693 18.7972C8.75754 18.5598 8.28991 18.6424 8.05246 18.9818L9.28151 19.8417ZM6.94126 20.5701C6.7038 20.9094 6.78644 21.3771 7.12584 21.6145C7.46523 21.852 7.93286 21.7693 8.17031 21.4299L6.94126 20.5701ZM15.9487 18.9818C15.7112 18.6424 15.2436 18.5598 14.9042 18.7972C14.5648 19.0347 14.4822 19.5023 14.7196 19.8417L15.9487 18.9818ZM15.8308 21.4299C16.0683 21.7693 16.5359 21.852 16.8753 21.6145C17.2147 21.3771 17.2973 20.9094 17.0599 20.5701L15.8308 21.4299ZM14.8349 2.45572L11.4843 5.63219L12.5163 6.72075L15.8669 3.54428L14.8349 2.45572ZM8.13373 3.54428L11.4843 6.72075L12.5163 5.63219L9.16573 2.45572L8.13373 3.54428ZM8.05246 18.9818L6.94126 20.5701L8.17031 21.4299L9.28151 19.8417L8.05246 18.9818ZM14.7196 19.8417L15.8308 21.4299L17.0599 20.5701L15.9487 18.9818L14.7196 19.8417Z" fill="#e6f4ff"/> <path d="M4.80827 15.4094L4.08356 15.6025L4.80827 15.4094ZM4.80827 10.7083L5.53299 10.9014L4.80827 10.7083ZM19.1917 10.7083L18.467 10.9014L19.1917 10.7083ZM19.1917 15.4094L19.9164 15.6025L19.1917 15.4094ZM14.429 19.4396L14.2774 18.7051L14.2773 18.7051L14.429 19.4396ZM9.57098 19.4396L9.41931 20.1741H9.41931L9.57098 19.4396ZM9.57098 6.67809L9.72265 7.41259L9.57098 6.67809ZM14.429 6.67809L14.5807 5.94358V5.94358L14.429 6.67809ZM9.07917 19.3381L9.23084 18.6036H9.23084L9.07917 19.3381ZM14.9208 19.3381L15.0725 20.0726L15.0725 20.0726L14.9208 19.3381ZM14.9208 6.77964L14.7692 7.51415V7.51415L14.9208 6.77964ZM9.07917 6.77964L8.9275 6.04514V6.04514L9.07917 6.77964ZM9.23084 7.51415L9.72265 7.41259L9.41931 5.94358L8.9275 6.04514L9.23084 7.51415ZM14.2774 7.41259L14.7692 7.51415L15.0725 6.04514L14.5807 5.94358L14.2774 7.41259ZM14.7692 18.6036L14.2774 18.7051L14.5807 20.1741L15.0725 20.0726L14.7692 18.6036ZM9.72265 18.7051L9.23084 18.6036L8.9275 20.0726L9.41931 20.1741L9.72265 18.7051ZM5.53299 15.2163C5.15567 13.8003 5.15567 12.3174 5.53299 10.9014L4.08356 10.5152C3.63881 12.1843 3.63881 13.9334 4.08356 15.6025L5.53299 15.2163ZM18.467 10.9014C18.8443 12.3175 18.8443 13.8003 18.467 15.2163L19.9164 15.6025C20.3612 13.9334 20.3612 12.1843 19.9164 10.5152L18.467 10.9014ZM14.2773 18.7051C12.7766 19.015 11.2234 19.015 9.72265 18.7051L9.41931 20.1741C11.1201 20.5254 12.8799 20.5254 14.5807 20.1741L14.2773 18.7051ZM9.72265 7.41259C11.2234 7.1027 12.7766 7.1027 14.2774 7.41259L14.5807 5.94358C12.8799 5.59237 11.1201 5.59237 9.41931 5.94358L9.72265 7.41259ZM9.23084 18.6036C7.40303 18.2261 5.98226 16.9024 5.53299 15.2163L4.08356 15.6025C4.68704 17.8673 6.57448 19.5867 8.9275 20.0726L9.23084 18.6036ZM15.0725 20.0726C17.4255 19.5867 19.313 17.8673 19.9164 15.6025L18.467 15.2163C18.0177 16.9024 16.597 18.2261 14.7692 18.6036L15.0725 20.0726ZM14.7692 7.51415C16.597 7.89158 18.0177 9.21534 18.467 10.9014L19.9164 10.5152C19.313 8.25039 17.4255 6.53102 15.0725 6.04514L14.7692 7.51415ZM8.9275 6.04514C6.57449 6.53102 4.68704 8.25039 4.08356 10.5152L5.53299 10.9014C5.98226 9.21534 7.40303 7.89158 9.23084 7.51415L8.9275 6.04514Z" fill="#fff0fd"/> </g>
</svg>